<mxfile host="app.diagrams.net" modified="2021-01-06T13:23:56.762Z" agent="5.0 (Windows)" etag="BsxROXX2T6QVeN_gM2RP" version="14.1.8" type="github">
  <diagram id="S3r6vivTVz97zhiGVYLz" name="Page-1">
    <mxGraphModel dx="868" dy="451" grid="1" gridSize="10" guides="1" tooltips="1" connect="1" arrows="1" fold="1" page="1" pageScale="1" pageWidth="827" pageHeight="1169" math="0" shadow="0">
      <root>
        <mxCell id="0" />
        <mxCell id="1" parent="0" />
        <mxCell id="VKYFK5zH8EZ2SyJJWb5b-1" value="ManageEmployee&#xa;View" style="shape=umlLifeline;perimeter=lifelinePerimeter;container=1;collapsible=0;recursiveResize=0;rounded=0;shadow=0;strokeWidth=1;" parent="1" vertex="1">
          <mxGeometry x="220" y="80" width="100" height="340" as="geometry" />
        </mxCell>
        <mxCell id="VKYFK5zH8EZ2SyJJWb5b-11" value="" style="points=[];perimeter=orthogonalPerimeter;rounded=0;shadow=0;strokeWidth=1;" parent="VKYFK5zH8EZ2SyJJWb5b-1" vertex="1">
          <mxGeometry x="45" y="90" width="10" height="200" as="geometry" />
        </mxCell>
        <mxCell id="VKYFK5zH8EZ2SyJJWb5b-13" value="confirmChangePopup()" style="verticalAlign=bottom;endArrow=block;shadow=0;strokeWidth=1;" parent="VKYFK5zH8EZ2SyJJWb5b-1" source="VKYFK5zH8EZ2SyJJWb5b-11" target="VKYFK5zH8EZ2SyJJWb5b-11" edge="1">
          <mxGeometry x="-0.1538" y="10" relative="1" as="geometry">
            <mxPoint x="80" y="269.5" as="sourcePoint" />
            <mxPoint x="255" y="269.5" as="targetPoint" />
            <Array as="points">
              <mxPoint x="110" y="150" />
              <mxPoint x="110" y="170" />
              <mxPoint x="110" y="180" />
              <mxPoint x="80" y="180" />
            </Array>
            <mxPoint as="offset" />
          </mxGeometry>
        </mxCell>
        <mxCell id="VKYFK5zH8EZ2SyJJWb5b-4" value="ConfirmEdit&#xa;Employee&#xa;Controller" style="shape=umlLifeline;perimeter=lifelinePerimeter;container=1;collapsible=0;recursiveResize=0;rounded=0;shadow=0;strokeWidth=1;size=50;" parent="1" vertex="1">
          <mxGeometry x="410" y="80" width="100" height="340" as="geometry" />
        </mxCell>
        <mxCell id="VKYFK5zH8EZ2SyJJWb5b-5" value="" style="points=[];perimeter=orthogonalPerimeter;rounded=0;shadow=0;strokeWidth=1;" parent="VKYFK5zH8EZ2SyJJWb5b-4" vertex="1">
          <mxGeometry x="45" y="180" width="10" height="110" as="geometry" />
        </mxCell>
        <mxCell id="VKYFK5zH8EZ2SyJJWb5b-7" value="Manager" style="shape=umlActor;verticalLabelPosition=bottom;verticalAlign=top;html=1;outlineConnect=0;" parent="1" vertex="1">
          <mxGeometry x="50" y="70" width="30" height="60" as="geometry" />
        </mxCell>
        <mxCell id="VKYFK5zH8EZ2SyJJWb5b-8" value="Database" style="shape=umlLifeline;perimeter=lifelinePerimeter;container=1;collapsible=0;recursiveResize=0;rounded=0;shadow=0;strokeWidth=1;" parent="1" vertex="1">
          <mxGeometry x="630" y="80" width="100" height="340" as="geometry" />
        </mxCell>
        <mxCell id="VKYFK5zH8EZ2SyJJWb5b-9" value="" style="points=[];perimeter=orthogonalPerimeter;rounded=0;shadow=0;strokeWidth=1;" parent="VKYFK5zH8EZ2SyJJWb5b-8" vertex="1">
          <mxGeometry x="45" y="190" width="10" height="100" as="geometry" />
        </mxCell>
        <mxCell id="VKYFK5zH8EZ2SyJJWb5b-10" value="" style="points=[];perimeter=orthogonalPerimeter;rounded=0;shadow=0;strokeWidth=1;" parent="1" vertex="1">
          <mxGeometry x="60" y="150" width="10" height="210" as="geometry" />
        </mxCell>
        <mxCell id="VKYFK5zH8EZ2SyJJWb5b-12" value="edit employee info and click confirm" style="verticalAlign=bottom;endArrow=block;shadow=0;strokeWidth=1;" parent="1" target="VKYFK5zH8EZ2SyJJWb5b-11" edge="1">
          <mxGeometry relative="1" as="geometry">
            <mxPoint x="70" y="210" as="sourcePoint" />
            <mxPoint x="245" y="210" as="targetPoint" />
            <Array as="points">
              <mxPoint x="120" y="210" />
            </Array>
          </mxGeometry>
        </mxCell>
        <mxCell id="VKYFK5zH8EZ2SyJJWb5b-14" value="updateChange()" style="verticalAlign=bottom;endArrow=block;shadow=0;strokeWidth=1;" parent="1" source="VKYFK5zH8EZ2SyJJWb5b-5" target="VKYFK5zH8EZ2SyJJWb5b-9" edge="1">
          <mxGeometry relative="1" as="geometry">
            <mxPoint x="480" y="390" as="sourcePoint" />
            <mxPoint x="680" y="390" as="targetPoint" />
            <Array as="points">
              <mxPoint x="540" y="320" />
            </Array>
          </mxGeometry>
        </mxCell>
        <mxCell id="VKYFK5zH8EZ2SyJJWb5b-15" value="click confirm" style="verticalAlign=bottom;endArrow=block;shadow=0;strokeWidth=1;" parent="1" edge="1">
          <mxGeometry relative="1" as="geometry">
            <mxPoint x="70" y="280" as="sourcePoint" />
            <mxPoint x="265" y="280" as="targetPoint" />
            <Array as="points">
              <mxPoint x="120" y="280" />
            </Array>
          </mxGeometry>
        </mxCell>
        <mxCell id="VKYFK5zH8EZ2SyJJWb5b-16" value="updateManageEmployee()" style="verticalAlign=bottom;endArrow=block;shadow=0;strokeWidth=1;" parent="1" source="VKYFK5zH8EZ2SyJJWb5b-11" target="VKYFK5zH8EZ2SyJJWb5b-5" edge="1">
          <mxGeometry relative="1" as="geometry">
            <mxPoint x="280" y="310" as="sourcePoint" />
            <mxPoint x="530" y="300" as="targetPoint" />
            <Array as="points">
              <mxPoint x="395" y="300" />
            </Array>
          </mxGeometry>
        </mxCell>
        <mxCell id="VKYFK5zH8EZ2SyJJWb5b-18" value="updateAndReturnHomePage()" style="verticalAlign=bottom;endArrow=open;dashed=1;endSize=8;shadow=0;strokeWidth=1;" parent="1" source="VKYFK5zH8EZ2SyJJWb5b-5" target="VKYFK5zH8EZ2SyJJWb5b-11" edge="1">
          <mxGeometry relative="1" as="geometry">
            <mxPoint x="250" y="270" as="targetPoint" />
            <mxPoint x="340" y="290" as="sourcePoint" />
            <Array as="points">
              <mxPoint x="390" y="340" />
            </Array>
          </mxGeometry>
        </mxCell>
      </root>
    </mxGraphModel>
  </diagram>
</mxfile>
